<svg width="1000" height="620" xmlns="http://www.w3.org/2000/svg" font-family="Arial, sans-serif">
  <defs>
    <filter id="shadow"><feDropShadow dx="0" dy="2" stdDeviation="4" flood-color="#1E1208" flood-opacity="0.07"/></filter>
    <filter id="shadow-sm"><feDropShadow dx="0" dy="1" stdDeviation="2" flood-color="#1E1208" flood-opacity="0.05"/></filter>
  </defs>

  <!-- Background -->
  <rect width="1000" height="620" fill="#F7F2EC"/>

  <!-- ══════════ SIDEBAR ══════════ -->
  <rect width="220" height="620" fill="#1E1208"/>
  <rect width="220" height="70" fill="#140C04"/>
  <circle cx="30" cy="35" r="16" fill="#2A1508"/>
  <text x="30" y="41" text-anchor="middle" fill="#C17D3C" font-size="18">✿</text>
  <text x="125" y="29" text-anchor="middle" fill="#E8C4A0" font-size="14" font-weight="bold">Botania Jewelry</text>
  <text x="125" y="50" text-anchor="middle" fill="#6B4C2A" font-size="11">Panel de control</text>

  <!-- Nav: Bandeja ACTIVE -->
  <rect x="0" y="78" width="220" height="38" fill="#5C2D0E"/>
  <rect x="0" y="78" width="4" height="38" fill="#C17D3C"/>
  <text x="22" y="102" fill="#FFFFFF" font-size="13">📥  Bandeja de revisión</text>
  <circle cx="203" cy="97" r="10" fill="#E53935"/>
  <text x="203" y="101" text-anchor="middle" fill="white" font-size="10" font-weight="bold">3</text>

  <text x="22" y="140" fill="#8B7355" font-size="13">📤  Subir contenido</text>
  <text x="22" y="178" fill="#8B7355" font-size="13">📚  Biblioteca</text>
  <text x="22" y="216" fill="#8B7355" font-size="13">📱  Publicar</text>
  <text x="22" y="254" fill="#8B7355" font-size="13">📦  Productos Etsy</text>
  <text x="22" y="292" fill="#8B7355" font-size="13">⚙️  Gestión de APIs</text>

  <line x1="15" y1="314" x2="205" y2="314" stroke="#2A1508"/>
  <text x="22" y="334" fill="#6B4C2A" font-size="10" letter-spacing="1">SERVICIOS</text>
  <circle cx="22" cy="354" r="5" fill="#4CAF50"/>
  <text x="36" y="358" fill="#8B7355" font-size="11">Instagram API</text>
  <circle cx="22" cy="374" r="5" fill="#4CAF50"/>
  <text x="36" y="378" fill="#8B7355" font-size="11">Etsy API</text>
  <circle cx="22" cy="394" r="5" fill="#FF9800"/>
  <text x="36" y="398" fill="#8B7355" font-size="11">Meta Token (12d) ⚠</text>
  <circle cx="22" cy="414" r="5" fill="#4CAF50"/>
  <text x="36" y="418" fill="#8B7355" font-size="11">Claude API</text>
  <text x="22" y="605" fill="#3A2010" font-size="10">v1.0 · Botania © 2025</text>

  <!-- ══════════ TOP BAR ══════════ -->
  <rect x="220" y="0" width="780" height="65" fill="white"/>
  <line x1="220" y1="65" x2="1000" y2="65" stroke="#E8DDD5"/>
  <text x="242" y="33" fill="#1E1208" font-size="18" font-weight="bold">Bandeja de revisión</text>
  <text x="242" y="53" fill="#9B8878" font-size="12">3 elementos pendientes · Actualizado hace 3 min</text>
  <rect x="845" y="16" width="140" height="33" rx="7" fill="#C17D3C"/>
  <text x="915" y="38" text-anchor="middle" fill="white" font-size="12">✅ Aprobar todo</text>

  <!-- ══════════ CARD 1 — Normal + IA ══════════ -->
  <rect x="232" y="78" width="756" height="148" rx="10" fill="white" filter="url(#shadow)"/>
  <rect x="252" y="94" width="86" height="86" rx="8" fill="#F5E6D3"/>
  <text x="295" y="146" text-anchor="middle" fill="#C17D3C" font-size="36">🌸</text>

  <text x="356" y="112" fill="#1E1208" font-size="14" font-weight="bold">pendientes_flores_azules_001.jpg</text>
  <text x="356" y="130" fill="#9B8878" font-size="11">Google Drive · Subido hace 5 min · 2.4 MB · Foto</text>

  <rect x="356" y="140" width="490" height="36" rx="6" fill="#FEF8F0"/>
  <rect x="356" y="140" width="4" height="36" rx="2" fill="#C17D3C"/>
  <text x="370" y="155" fill="#8B4513" font-size="10" font-weight="bold">✨ Sugerencia IA</text>
  <text x="370" y="170" fill="#6B5744" font-size="11">"Pendientes artesanales de resina con flores azules secas, estilo boho natural..."</text>

  <rect x="356" y="184" width="80" height="22" rx="11" fill="#E3F2FD"/>
  <text x="396" y="199" text-anchor="middle" fill="#1565C0" font-size="10">#botanica</text>
  <rect x="442" y="184" width="62" height="22" rx="11" fill="#E3F2FD"/>
  <text x="473" y="199" text-anchor="middle" fill="#1565C0" font-size="10">#resina</text>
  <rect x="510" y="184" width="78" height="22" rx="11" fill="#E3F2FD"/>
  <text x="549" y="199" text-anchor="middle" fill="#1565C0" font-size="10">#handmade</text>
  <rect x="594" y="184" width="62" height="22" rx="11" fill="#E3F2FD"/>
  <text x="625" y="199" text-anchor="middle" fill="#1565C0" font-size="10">#boho</text>

  <rect x="252" y="192" width="88" height="22" rx="11" fill="#E8F5E9"/>
  <text x="296" y="207" text-anchor="middle" fill="#2E7D32" font-size="10">📱 Instagram ✓</text>

  <rect x="676" y="94" width="98" height="34" rx="7" fill="#4CAF50"/>
  <text x="725" y="116" text-anchor="middle" fill="white" font-size="13">✅ Aprobar</text>
  <rect x="782" y="94" width="82" height="34" rx="7" fill="#FFF3E0"/>
  <text x="823" y="116" text-anchor="middle" fill="#E65100" font-size="13">✏️ Editar</text>
  <rect x="872" y="94" width="100" height="34" rx="7" fill="#FFEBEE"/>
  <text x="922" y="116" text-anchor="middle" fill="#C62828" font-size="13">🗑 Descartar</text>

  <!-- ══════════ CARD 2 — Error ══════════ -->
  <rect x="232" y="238" width="756" height="96" rx="10" fill="white" filter="url(#shadow)"/>
  <rect x="232" y="238" width="6" height="96" rx="3" fill="#E53935"/>
  <rect x="252" y="254" width="72" height="62" rx="8" fill="#FFEBEE"/>
  <text x="288" y="295" text-anchor="middle" fill="#E53935" font-size="30">⚠</text>
  <text x="340" y="272" fill="#1E1208" font-size="14" font-weight="bold">anillo_margarita_002.jpg</text>
  <text x="340" y="292" fill="#E53935" font-size="12">Error: imagen de baja resolución — el análisis IA no pudo completarse</text>
  <text x="340" y="312" fill="#9B8878" font-size="12">Completa los datos manualmente para añadirla a la biblioteca</text>
  <rect x="748" y="258" width="222" height="34" rx="7" fill="none" stroke="#E53935" stroke-width="1.5"/>
  <text x="859" y="280" text-anchor="middle" fill="#C62828" font-size="12">✏️ Completar manualmente</text>

  <!-- ══════════ CARD 3 — Video ══════════ -->
  <rect x="232" y="346" width="756" height="96" rx="10" fill="white" filter="url(#shadow)"/>
  <rect x="252" y="362" width="72" height="62" rx="8" fill="#1E1208"/>
  <text x="288" y="403" text-anchor="middle" fill="white" font-size="28">▶</text>
  <text x="340" y="380" fill="#1E1208" font-size="14" font-weight="bold">proceso_resina_colgante.mp4 · 0:45</text>
  <text x="340" y="400" fill="#6B5744" font-size="12">✨ IA: "Reel de proceso ideal para Instagram — muestra la técnica de vertido de resina..."</text>
  <rect x="340" y="412" width="118" height="20" rx="10" fill="#F3E5F5"/>
  <text x="399" y="426" text-anchor="middle" fill="#6A1B9A" font-size="10">📹 Instagram Reel</text>
  <rect x="676" y="362" width="98" height="34" rx="7" fill="#4CAF50"/>
  <text x="725" y="384" text-anchor="middle" fill="white" font-size="13">✅ Aprobar</text>
  <rect x="782" y="362" width="82" height="34" rx="7" fill="#FFF3E0"/>
  <text x="823" y="384" text-anchor="middle" fill="#E65100" font-size="13">✏️ Editar</text>

  <!-- Footer -->
  <text x="610" y="502" text-anchor="middle" fill="#C17D3C" font-size="12" font-style="italic">El contenido aprobado entra automáticamente en la cola de publicación ✦</text>
</svg>
