<svg width="1000" height="620" xmlns="http://www.w3.org/2000/svg" font-family="Arial, sans-serif">
  <defs>
    <filter id="shadow"><feDropShadow dx="0" dy="2" stdDeviation="4" flood-color="#1E1208" flood-opacity="0.07"/></filter>
    <filter id="shadow-sm"><feDropShadow dx="0" dy="1" stdDeviation="2" flood-color="#1E1208" flood-opacity="0.05"/></filter>
  </defs>
  <rect width="1000" height="620" fill="#F7F2EC"/>

  <!-- ══════════ SIDEBAR ══════════ -->
  <rect width="220" height="620" fill="#1E1208"/>
  <rect width="220" height="70" fill="#140C04"/>
  <circle cx="30" cy="35" r="16" fill="#2A1508"/>
  <text x="30" y="41" text-anchor="middle" fill="#C17D3C" font-size="18">✿</text>
  <text x="125" y="29" text-anchor="middle" fill="#E8C4A0" font-size="14" font-weight="bold">Botania Jewelry</text>
  <text x="125" y="50" text-anchor="middle" fill="#6B4C2A" font-size="11">Panel de control</text>
  <text x="22" y="102" fill="#8B7355" font-size="13">📥  Bandeja de revisión</text>
  <circle cx="203" cy="97" r="10" fill="#E53935"/>
  <text x="203" y="101" text-anchor="middle" fill="white" font-size="10" font-weight="bold">3</text>
  <text x="22" y="140" fill="#8B7355" font-size="13">📤  Subir contenido</text>
  <text x="22" y="178" fill="#8B7355" font-size="13">📚  Biblioteca</text>

  <!-- Nav: Publicar ACTIVE -->
  <rect x="0" y="192" width="220" height="38" fill="#5C2D0E"/>
  <rect x="0" y="192" width="4" height="38" fill="#C17D3C"/>
  <text x="22" y="216" fill="#FFFFFF" font-size="13">📱  Publicar</text>

  <text x="22" y="254" fill="#8B7355" font-size="13">📦  Productos Etsy</text>
  <text x="22" y="292" fill="#8B7355" font-size="13">⚙️  Gestión de APIs</text>
  <line x1="15" y1="314" x2="205" y2="314" stroke="#2A1508"/>
  <text x="22" y="334" fill="#6B4C2A" font-size="10" letter-spacing="1">SERVICIOS</text>
  <circle cx="22" cy="354" r="5" fill="#4CAF50"/>
  <text x="36" y="358" fill="#8B7355" font-size="11">Instagram API</text>
  <circle cx="22" cy="374" r="5" fill="#4CAF50"/>
  <text x="36" y="378" fill="#8B7355" font-size="11">Etsy API</text>
  <circle cx="22" cy="394" r="5" fill="#FF9800"/>
  <text x="36" y="398" fill="#8B7355" font-size="11">Meta Token (12d) ⚠</text>
  <circle cx="22" cy="414" r="5" fill="#4CAF50"/>
  <text x="36" y="418" fill="#8B7355" font-size="11">Claude API</text>
  <text x="22" y="605" fill="#3A2010" font-size="10">v1.0 · Botania © 2025</text>

  <!-- ══════════ TOP BAR ══════════ -->
  <rect x="220" y="0" width="780" height="65" fill="white"/>
  <line x1="220" y1="65" x2="1000" y2="65" stroke="#E8DDD5"/>
  <text x="242" y="33" fill="#1E1208" font-size="18" font-weight="bold">Publicar contenido</text>
  <text x="242" y="53" fill="#9B8878" font-size="12">Selecciona un asset, revisa el texto generado por IA y publica</text>

  <!-- ══════════ LEFT — Asset selector ══════════ -->
  <rect x="232" y="78" width="330" height="510" rx="10" fill="white" filter="url(#shadow)"/>
  <text x="252" y="108" fill="#1E1208" font-size="14" font-weight="bold">Seleccionar asset</text>
  <rect x="252" y="116" width="290" height="26" rx="6" fill="#F7F2EC" stroke="#E8DDD5" stroke-width="1"/>
  <text x="266" y="134" fill="#B0A090" font-size="12">🔍  Filtrar assets disponibles...</text>

  <!-- Asset selected (highlighted) -->
  <rect x="248" y="152" width="298" height="88" rx="8" fill="#FEF8F0" stroke="#C17D3C" stroke-width="1.5"/>
  <rect x="260" y="163" width="68" height="64" rx="6" fill="#F5E6D3"/>
  <text x="294" y="203" text-anchor="middle" fill="#C17D3C" font-size="28">🌸</text>
  <text x="338" y="180" fill="#1E1208" font-size="12" font-weight="bold">pendientes_azules_001</text>
  <text x="338" y="196" fill="#9B8878" font-size="10">Pendientes · Foto · 2.4 MB</text>
  <rect x="338" y="205" width="68" height="18" rx="9" fill="#E8F5E9"/>
  <text x="372" y="218" text-anchor="middle" fill="#2E7D32" font-size="10">Disponible</text>
  <circle cx="532" cy="196" r="10" fill="#C17D3C"/>
  <text x="532" y="200" text-anchor="middle" fill="white" font-size="14">✓</text>

  <!-- Other assets (not selected) -->
  <rect x="248" y="250" width="298" height="74" rx="8" fill="#F7F2EC"/>
  <rect x="260" y="261" width="56" height="52" rx="6" fill="#E8D8C0"/>
  <text x="288" y="293" text-anchor="middle" fill="#8B6040" font-size="22">💍</text>
  <text x="326" y="277" fill="#6B5744" font-size="12" font-weight="bold">anillo_perla_001</text>
  <text x="326" y="293" fill="#9B8878" font-size="10">Anillos · Foto</text>
  <rect x="326" y="302" width="68" height="18" rx="9" fill="#E8F5E9"/>
  <text x="360" y="315" text-anchor="middle" fill="#2E7D32" font-size="10">Disponible</text>

  <rect x="248" y="334" width="298" height="74" rx="8" fill="#F7F2EC"/>
  <rect x="260" y="345" width="56" height="52" rx="6" fill="#1E1208"/>
  <text x="288" y="378" text-anchor="middle" fill="white" font-size="20">▶</text>
  <text x="326" y="361" fill="#6B5744" font-size="12" font-weight="bold">proceso_resina_001.mp4</text>
  <text x="326" y="377" fill="#9B8878" font-size="10">Proceso · Vídeo · 0:32</text>
  <rect x="326" y="386" width="68" height="18" rx="9" fill="#E8F5E9"/>
  <text x="360" y="399" text-anchor="middle" fill="#2E7D32" font-size="10">Disponible</text>

  <rect x="248" y="418" width="298" height="74" rx="8" fill="#F7F2EC"/>
  <rect x="260" y="429" width="56" height="52" rx="6" fill="#F5E6D3"/>
  <text x="288" y="462" text-anchor="middle" fill="#C17D3C" font-size="22">🌿</text>
  <text x="326" y="445" fill="#6B5744" font-size="12" font-weight="bold">colgante_lavanda_003</text>
  <text x="326" y="461" fill="#9B8878" font-size="10">Colgantes · Foto</text>
  <rect x="326" y="470" width="68" height="18" rx="9" fill="#E8F5E9"/>
  <text x="360" y="483" text-anchor="middle" fill="#2E7D32" font-size="10">Disponible</text>

  <!-- ══════════ RIGHT — Publicación ══════════ -->
  <rect x="576" y="78" width="412" height="510" rx="10" fill="white" filter="url(#shadow)"/>

  <!-- Preview -->
  <rect x="596" y="94" width="140" height="140" rx="10" fill="#F5E6D3"/>
  <text x="666" y="175" text-anchor="middle" fill="#C17D3C" font-size="56">🌸</text>
  <text x="596" y="250" fill="#9B8878" font-size="10">pendientes_flores_azules_001.jpg</text>

  <!-- Platform selector -->
  <text x="760" y="114" fill="#1E1208" font-size="14" font-weight="bold">Publicar en</text>
  <rect x="760" y="122" width="120" height="34" rx="7" fill="#E8F5E9" stroke="#4CAF50" stroke-width="1.5"/>
  <text x="820" y="144" text-anchor="middle" fill="#2E7D32" font-size="13">📱 Instagram</text>
  <rect x="760" y="162" width="100" height="34" rx="7" fill="#F7F2EC" stroke="#E8DDD5" stroke-width="1"/>
  <text x="810" y="184" text-anchor="middle" fill="#9B8878" font-size="13">🛍 Etsy</text>
  <rect x="760" y="202" width="100" height="34" rx="7" fill="#F7F2EC" stroke="#E8DDD5" stroke-width="1"/>
  <text x="810" y="224" text-anchor="middle" fill="#9B8878" font-size="13">🌐 Web</text>

  <!-- Divider -->
  <line x1="596" y1="264" x2="970" y2="264" stroke="#E8DDD5"/>

  <!-- Caption IA -->
  <text x="596" y="288" fill="#1E1208" font-size="13" font-weight="bold">Caption generado por IA</text>
  <rect x="596" y="296" width="4" height="100" rx="2" fill="#C17D3C"/>
  <rect x="604" y="296" width="370" height="100" rx="0" fill="#FEF8F0"/>
  <text x="618" y="316" fill="#6B5744" font-size="11">🌸 Cada pieza, una historia natural.</text>
  <text x="618" y="334" fill="#6B5744" font-size="11">Estos pendientes artesanales de resina</text>
  <text x="618" y="352" fill="#6B5744" font-size="11">capturan la delicadeza de las flores</text>
  <text x="618" y="370" fill="#6B5744" font-size="11">azules en un instante eterno. ✨</text>
  <text x="618" y="390" fill="#C17D3C" font-size="11" font-style="italic">← haz clic para editar</text>

  <!-- Regenerate -->
  <rect x="596" y="406" width="180" height="30" rx="7" fill="#FEF8F0" stroke="#C17D3C" stroke-width="1"/>
  <text x="686" y="426" text-anchor="middle" fill="#8B4513" font-size="12">✨ Regenerar caption</text>

  <!-- Hashtags -->
  <text x="596" y="460" fill="#1E1208" font-size="13" font-weight="bold">Hashtags</text>
  <rect x="596" y="467" width="374" height="32" rx="6" fill="#F7F2EC" stroke="#E8DDD5" stroke-width="1"/>
  <text x="610" y="488" fill="#6B5744" font-size="11">#botanica  #joyeriaresina  #flores  #handmade</text>

  <!-- Programar -->
  <text x="596" y="524" fill="#1E1208" font-size="13" font-weight="bold">Programar para</text>
  <rect x="596" y="531" width="180" height="32" rx="6" fill="#F7F2EC" stroke="#E8DDD5" stroke-width="1"/>
  <text x="610" y="552" fill="#1E1208" font-size="12">Ahora mismo</text>
  <text x="758" y="552" fill="#9B8878" font-size="12">▾</text>

  <!-- Publish button -->
  <rect x="596" y="572" width="374" height="40" rx="8" fill="#1E1208"/>
  <text x="783" y="597" text-anchor="middle" fill="white" font-size="14" font-weight="bold">🚀 Publicar en Instagram</text>
</svg>
